<svg width="22" height="22" viewBox="0 0 22 22" fill="none" xmlns="http://www.w3.org/2000/svg">
<path d="M3.90692 1.00048C6.17354 0.401947 8.54512 0.541982 10.866 0.5C10.7296 2.69639 10.859 4.96111 10.1332 7.07177C9.57354 8.68189 8.17781 9.92973 6.52156 10.32C4.55404 10.7891 2.51471 10.8276 0.501718 10.8416C0.566408 8.38794 0.391484 5.85365 1.16108 3.48567C1.54232 2.22212 2.64937 1.30851 3.90692 1.00048ZM11.1581 0.505213C13.5786 0.543743 16.0691 0.375744 18.4127 1.10029C19.609 1.45031 20.5604 2.41463 20.905 3.61352C21.6116 5.94994 21.4681 8.42985 21.4961 10.8416C19.4813 10.8276 17.4386 10.7926 15.4745 10.3131C13.778 9.90705 12.3456 8.5944 11.8191 6.92828C11.1651 4.85256 11.277 2.65089 11.1581 0.505213ZM0.501718 11.1567C2.29263 11.1672 4.09227 11.2529 5.8622 11.5417C7.60947 11.8094 9.30246 12.884 9.99322 14.5588C10.9115 16.7536 10.6824 19.1829 10.873 21.5C8.77769 21.4772 6.65974 21.549 4.58902 21.1657C3.41193 20.94 2.16494 20.4237 1.54584 19.3333C0.744781 17.9174 0.655595 16.2461 0.562888 14.657C0.54888 13.4896 0.475462 12.324 0.501718 11.1567ZM15.7753 11.6169C17.6554 11.2406 19.5828 11.1794 21.4961 11.1602C21.4681 13.5718 21.6133 16.0518 20.905 18.3882C20.5587 19.5818 19.6108 20.5427 18.4198 20.898C16.0726 21.6207 13.5769 21.4563 11.1529 21.4947C11.2647 19.2983 11.1529 17.0336 11.8699 14.9229C12.4505 13.213 14.0211 11.9564 15.7753 11.6169Z" fill="#E41F26"/>
</svg>
