<svg width="42" height="42" viewBox="0 0 42 42" fill="none" xmlns="http://www.w3.org/2000/svg">
<path fill-rule="evenodd" clip-rule="evenodd" d="M30.9474 12.1814C30.8857 12.0467 30.756 11.9219 30.6271 11.8731C30.5697 11.8514 30.4944 11.8338 30.4599 11.834C30.4253 11.8342 30.1198 11.9399 29.781 12.0689C27.0873 13.0945 13.7814 18.2835 10.9304 19.4203C10.353 19.6505 10.3058 19.6806 10.2088 19.8811C10.0842 20.1387 10.2082 20.4682 10.4747 20.5874C10.6685 20.6741 11.9029 21.1522 13.2218 21.6515C13.9297 21.9195 14.6883 22.2101 14.9076 22.2974L15.3062 22.456L15.3474 22.5673C15.3981 22.7044 15.8378 24.1037 16.1197 25.0252C16.7465 27.0738 17.1998 28.5158 17.245 28.6049C17.2957 28.7047 17.3976 28.7962 17.4989 28.8329C17.6137 28.8745 17.8587 28.8772 17.9486 28.8379C18.0165 28.8081 18.7889 28.189 19.7089 27.4268C20.3481 26.8972 20.7319 26.5898 20.8638 26.5015C21 26.4105 21.2109 26.3601 21.3367 26.3887C21.5934 26.4468 21.8454 26.6142 23.4639 27.8013C25.5754 29.3499 25.9148 29.5979 26.2007 29.8013C26.6615 30.129 26.7331 30.1673 26.8839 30.1673C26.9527 30.1673 27.0436 30.1569 27.0858 30.1441C27.1863 30.1136 27.3228 29.9905 27.3728 29.8853C27.3947 29.8391 27.4873 29.4588 27.5787 29.04C28.2574 25.9273 30.6755 14.082 30.9536 12.5077L30.9935 12.282L30.9474 12.1814ZM17.0644 21.3936C18.3198 20.5787 23.3175 17.4595 25.5268 16.1119C25.9785 15.8365 26.3642 15.6111 26.384 15.6111C26.4264 15.6111 26.5344 15.7142 26.5344 15.7546C26.5344 15.8175 25.185 17.1133 22.1731 19.9426C18.8885 23.028 18.5412 23.3655 18.4311 23.5781C18.2913 23.8485 18.2409 24.0818 18.0952 25.134C18.0014 25.8115 17.9394 26.1751 17.9074 26.2355C17.8569 26.3309 17.6228 26.3613 17.5641 26.2801C17.5161 26.2137 17.2217 25.252 16.8953 24.0957C16.416 22.397 16.3805 22.181 16.5309 21.8806C16.6134 21.7158 16.7252 21.6138 17.0644 21.3936Z" fill="#E41F26"/>
</svg>
