<svg width="42" height="42" viewBox="0 0 42 42" fill="none" xmlns="http://www.w3.org/2000/svg">
<path fill-rule="evenodd" clip-rule="evenodd" d="M19.7788 13.3607C19.0266 13.3686 17.4811 13.3986 17.0699 13.4132C16.9408 13.4177 16.7162 13.4253 16.5709 13.43C16.4256 13.4347 16.2218 13.4422 16.1181 13.4467C16.0143 13.4511 15.7973 13.4605 15.6358 13.4674C14.2425 13.5272 12.9895 13.6419 12.4353 13.7603C11.8786 13.8793 11.452 14.1006 11.062 14.4728C10.7 14.8183 10.4428 15.2617 10.3156 15.7596C10.1353 16.4653 10.0068 17.5456 9.93302 18.976C9.85995 20.3917 9.8664 21.67 9.95396 23.1284C10.0339 24.4597 10.1847 25.5593 10.3662 26.134C10.5368 26.6742 10.8909 27.1604 11.3586 27.4968C11.6758 27.7248 12.0139 27.8705 12.4353 27.9605C12.9918 28.0795 14.2385 28.1935 15.64 28.2536C15.7992 28.2605 16.0143 28.2697 16.1181 28.2742C16.2218 28.2786 16.4256 28.2861 16.5709 28.2908C16.7162 28.2955 16.9408 28.3031 17.0699 28.3077C17.3051 28.316 18.0304 28.3322 18.9737 28.3501C19.6234 28.3625 21.8045 28.3625 22.4542 28.3501C23.3975 28.3322 24.1228 28.316 24.358 28.3077C24.4871 28.3031 24.7117 28.2955 24.857 28.2908C25.0023 28.2861 25.2061 28.2786 25.3098 28.2742C25.4136 28.2697 25.6287 28.2605 25.7879 28.2536C27.1894 28.1935 28.436 28.0795 28.9926 27.9605C29.5493 27.8416 29.9758 27.6202 30.3659 27.248C30.7279 26.9026 30.9851 26.4591 31.1123 25.9612C31.3026 25.2163 31.4373 24.0337 31.5074 22.4933C31.5283 22.0334 31.5495 21.2119 31.5495 20.8604C31.5495 20.5958 31.5412 20.2074 31.5242 19.677C31.4655 17.8482 31.2925 16.3176 31.0617 15.5868C30.7853 14.7115 30.0464 14.0193 29.151 13.7969C28.7922 13.7078 28.2557 13.6354 27.4694 13.57C27.0707 13.5369 26.2696 13.4879 25.7879 13.4672C25.6241 13.4602 25.409 13.4509 25.3098 13.4466C25.2107 13.4423 25.0069 13.4349 24.857 13.4301C24.707 13.4252 24.4825 13.4176 24.358 13.4131C24.1218 13.4046 23.2587 13.3856 22.4961 13.3721C22.0346 13.3639 20.2041 13.3562 19.7788 13.3607ZM18.7611 17.8364C18.9011 17.915 19.2138 18.09 19.4559 18.2254C19.6981 18.3608 20.0585 18.5624 20.2569 18.6733C20.4552 18.7843 20.7571 18.9531 20.9278 19.0485C21.0985 19.144 21.3985 19.3118 21.5945 19.4215C21.7906 19.5311 22.1038 19.7064 22.2906 19.8108C22.4775 19.9153 22.802 20.0969 23.0119 20.2143C23.2218 20.3317 23.5661 20.5242 23.7771 20.642C23.988 20.7599 24.1607 20.8582 24.1607 20.8604C24.1607 20.8627 24.0749 20.9125 23.97 20.9712C23.8651 21.0299 23.6321 21.1601 23.4522 21.2607C23.2723 21.3612 22.944 21.5448 22.7226 21.6686C22.2253 21.9467 21.8429 22.1605 21.3262 22.4495C21.1071 22.572 20.7599 22.7662 20.5546 22.8811C20.3493 22.9959 20.0342 23.1721 19.8543 23.2727C19.2692 23.5996 18.8514 23.8334 18.6771 23.9313C18.5832 23.9841 18.503 24.0273 18.4989 24.0273C18.4946 24.0273 18.4915 22.6931 18.4915 20.8604C18.4915 18.9798 18.4946 17.6936 18.4991 17.6936C18.5032 17.6936 18.6212 17.7578 18.7611 17.8364Z" fill="#E41F26"/>
</svg>
