<svg width="28" height="28" viewBox="0 0 28 28" fill="none" xmlns="http://www.w3.org/2000/svg">
<rect x="0.181641" width="27.8" height="27.8" rx="4.63333" fill="#E41F26"/>
<mask id="path-2-outside-1_387_2507" maskUnits="userSpaceOnUse" x="4.74219" y="4.5625" width="18" height="18" fill="black">
<rect fill="white" x="4.74219" y="4.5625" width="18" height="18"/>
<path fill-rule="evenodd" clip-rule="evenodd" d="M13.0135 5.57282C12.8544 5.61258 12.6846 5.75212 12.6102 5.90425C12.5421 6.04362 12.5333 6.13272 12.5333 6.68358V7.20224L12.3249 7.25727C11.9027 7.36877 11.4636 7.53281 11.0804 7.72217C10.9601 7.78166 10.8537 7.83033 10.8441 7.83033C10.8345 7.83033 10.6314 7.63082 10.3928 7.38695C9.93107 6.91502 9.90163 6.89203 9.70902 6.85298C9.58676 6.82821 9.4496 6.85047 9.32214 6.91578C9.20046 6.97813 7.48782 8.7406 7.41958 8.87368C7.31877 9.07033 7.31584 9.2671 7.41085 9.46167C7.45657 9.5553 7.52403 9.63358 7.83162 9.94982L8.19795 10.3265L8.10191 10.4931C7.83982 10.9478 7.6017 11.5158 7.4413 12.0688C7.43687 12.0841 7.28019 12.0904 6.80946 12.0941L6.18349 12.0991L6.08542 12.1524C5.95918 12.221 5.8457 12.342 5.78795 12.4695L5.74219 12.5706V13.9093V15.248L5.77927 15.3308C5.85843 15.5077 6.00353 15.6404 6.17924 15.6968C6.26588 15.7246 6.33794 15.7279 6.85109 15.7279H7.42589L7.4971 15.951C7.61143 16.3093 7.7242 16.5894 7.8952 16.9398L8.05516 17.2676L7.63096 17.706C7.12731 18.2264 7.11556 18.2446 7.11528 18.5067C7.11513 18.6548 7.11932 18.6758 7.16995 18.7818C7.21983 18.8862 7.30309 18.9774 8.09341 19.7933C8.89621 20.622 8.97068 20.6943 9.0761 20.7475C9.18163 20.8006 9.20183 20.8049 9.34612 20.8049C9.48964 20.8049 9.51084 20.8005 9.61205 20.7491C9.70735 20.7008 9.77861 20.6351 10.1466 20.2565L10.5711 19.8196L10.7316 19.9111C11.1277 20.1371 11.698 20.3748 12.1432 20.4995L12.2799 20.5378L12.2881 21.1597L12.2963 21.7816L12.3435 21.8777C12.4074 22.0075 12.5195 22.1203 12.6477 22.1837L12.7539 22.2362L14.0451 22.2409C15.1944 22.245 15.3453 22.2425 15.4181 22.2184C15.6021 22.1575 15.748 22.0161 15.821 21.8279C15.8573 21.7343 15.8588 21.7108 15.8642 21.1307L15.8697 20.5304L15.9276 20.5192C16.0278 20.4998 16.4385 20.3591 16.6766 20.2626C16.9499 20.1518 17.3256 19.9654 17.5825 19.813L17.7692 19.7023L18.1139 20.053C18.4094 20.3537 18.4742 20.4114 18.5689 20.4579C18.7688 20.5562 18.9887 20.5443 19.1691 20.4253C19.2095 20.3986 19.6373 19.9692 20.1196 19.471C20.795 18.7734 21.006 18.5457 21.0377 18.48C21.0962 18.3588 21.1197 18.2087 21.0986 18.0911C21.0622 17.8881 21.0272 17.839 20.6121 17.4089L20.2257 17.0086L20.3175 16.8103C20.4445 16.5357 20.5489 16.2679 20.641 15.9805L20.7193 15.7363L21.3294 15.7279L21.9395 15.7195L22.0494 15.6658C22.2366 15.5745 22.3667 15.4007 22.405 15.191C22.429 15.06 22.4274 12.7263 22.4032 12.6093C22.3624 12.4107 22.2237 12.2284 22.0496 12.1443L21.9558 12.0991L21.338 12.0941C20.8737 12.0904 20.7188 12.0841 20.7144 12.0688C20.6647 11.8948 20.5537 11.5655 20.4891 11.4002C20.4112 11.2008 20.2035 10.7564 20.1114 10.592L20.0689 10.5162L20.4762 10.0952C20.9641 9.59095 20.9751 9.57335 20.9751 9.30376C20.9751 9.01776 21.0203 9.07686 19.9883 8.01214C19.1522 7.1495 19.0884 7.08759 18.9836 7.03732C18.7843 6.94176 18.5638 6.95503 18.3846 7.07332C18.3441 7.10003 18.1316 7.307 17.9124 7.53327L17.5138 7.94465L17.2025 7.78641C16.8919 7.62856 16.526 7.47246 16.2564 7.38284L16.1141 7.33553L16.1093 6.68584L16.1045 6.03615L16.0515 5.92533C15.9877 5.79186 15.8708 5.67358 15.7403 5.61059L15.6469 5.56546L14.3557 5.56278C13.6455 5.5613 13.0415 5.56581 13.0135 5.57282ZM15.4426 7.06083V7.87421L15.6019 7.91335C16.0338 8.0194 16.4831 8.18927 16.8988 8.4037C17.1315 8.52372 17.4059 8.68396 17.5508 8.78445L17.6079 8.82401L18.1597 8.25565L18.7115 7.68731L19.5 8.4997L20.2886 9.31211L19.7468 9.87204L19.205 10.432L19.2946 10.5667C19.6683 11.128 19.9762 11.8557 20.1336 12.5495L20.1861 12.781H20.9606H21.7352V13.9093V15.0375H20.9604H20.1856L20.1413 15.2354C20.0093 15.8236 19.7621 16.4599 19.4668 16.9711L19.3761 17.1281L19.8946 17.6625L20.4131 18.1969L19.6236 19.0079L18.834 19.8188L18.3437 19.3143L17.8534 18.8098L17.6899 18.9283C17.0073 19.4232 16.1463 19.7951 15.275 19.9716L15.1811 19.9906V20.7724V21.5543H14.0696H12.9582V20.7724C12.9582 20.0422 12.9563 19.9899 12.9296 19.982C12.9139 19.9774 12.8208 19.9572 12.7227 19.9372C12.4704 19.8857 12.0751 19.7661 11.7978 19.6572C11.4018 19.5017 10.8317 19.1997 10.5529 18.9977L10.4821 18.9464L9.91809 19.5262L9.35415 20.1061L8.57794 19.3062L7.80173 18.5064L8.36134 17.9296L8.92094 17.3529L8.85479 17.2518C8.47636 16.6738 8.15236 15.9057 8.01134 15.2522L7.96502 15.0376L7.18458 15.0375L6.40413 15.0375V13.9094V12.7814L7.1842 12.777L7.96425 12.7726L8.00203 12.5958C8.15892 11.8614 8.50788 11.059 8.94258 10.4332L9.07039 10.2491L8.55046 9.71327L8.03051 9.17738L8.81905 8.36499L9.60757 7.5526L10.1674 8.12719L10.7272 8.70177L10.8498 8.62559C11.4481 8.25377 12.2708 7.9429 12.9695 7.82465L13.1952 7.78645L13.1995 7.01695L13.2037 6.24745H14.3231H15.4426V7.06083ZM13.6692 9.46438C12.7547 9.56015 11.9408 9.89454 11.2497 10.4584C11.074 10.6018 10.7606 10.9185 10.601 11.114C10.1895 11.6179 9.85262 12.3227 9.71549 12.9663C9.59264 13.5428 9.58676 14.1923 9.69913 14.7681C9.95425 16.0751 10.8178 17.2261 12.0103 17.8485C12.4836 18.0956 12.9348 18.2407 13.4894 18.3242C13.7141 18.3581 14.4697 18.3537 14.703 18.3172C15.7284 18.1568 16.6134 17.6967 17.3068 16.9633C17.9606 16.272 18.3466 15.4704 18.4937 14.4986C18.5351 14.2256 18.5344 13.5788 18.4925 13.2946C18.3519 12.3408 17.9304 11.4839 17.2663 10.8017C16.9117 10.4374 16.5278 10.156 16.0718 9.9262C15.6344 9.70576 15.2151 9.5716 14.7316 9.49742C14.4687 9.45709 13.906 9.4396 13.6692 9.46438ZM14.5927 10.1812C15.6023 10.3177 16.5252 10.8659 17.1233 11.6846C17.5024 12.2034 17.7227 12.74 17.8224 13.3873C17.8609 13.637 17.8614 14.1587 17.8235 14.4109C17.6613 15.4886 17.0936 16.402 16.2121 17.0038C15.2071 17.6899 13.9431 17.8492 12.7772 17.4366C12.5474 17.3553 12.1545 17.1541 11.9449 17.0103C11.1623 16.4736 10.6217 15.698 10.3997 14.7933C10.3151 14.4484 10.2881 14.1794 10.2994 13.7914C10.3094 13.4444 10.3377 13.2382 10.4158 12.9428C10.6221 12.1624 11.1053 11.4391 11.7532 10.9404C12.5742 10.3086 13.5686 10.0427 14.5927 10.1812Z"/>
</mask>
<path fill-rule="evenodd" clip-rule="evenodd" d="M13.0135 5.57282C12.8544 5.61258 12.6846 5.75212 12.6102 5.90425C12.5421 6.04362 12.5333 6.13272 12.5333 6.68358V7.20224L12.3249 7.25727C11.9027 7.36877 11.4636 7.53281 11.0804 7.72217C10.9601 7.78166 10.8537 7.83033 10.8441 7.83033C10.8345 7.83033 10.6314 7.63082 10.3928 7.38695C9.93107 6.91502 9.90163 6.89203 9.70902 6.85298C9.58676 6.82821 9.4496 6.85047 9.32214 6.91578C9.20046 6.97813 7.48782 8.7406 7.41958 8.87368C7.31877 9.07033 7.31584 9.2671 7.41085 9.46167C7.45657 9.5553 7.52403 9.63358 7.83162 9.94982L8.19795 10.3265L8.10191 10.4931C7.83982 10.9478 7.6017 11.5158 7.4413 12.0688C7.43687 12.0841 7.28019 12.0904 6.80946 12.0941L6.18349 12.0991L6.08542 12.1524C5.95918 12.221 5.8457 12.342 5.78795 12.4695L5.74219 12.5706V13.9093V15.248L5.77927 15.3308C5.85843 15.5077 6.00353 15.6404 6.17924 15.6968C6.26588 15.7246 6.33794 15.7279 6.85109 15.7279H7.42589L7.4971 15.951C7.61143 16.3093 7.7242 16.5894 7.8952 16.9398L8.05516 17.2676L7.63096 17.706C7.12731 18.2264 7.11556 18.2446 7.11528 18.5067C7.11513 18.6548 7.11932 18.6758 7.16995 18.7818C7.21983 18.8862 7.30309 18.9774 8.09341 19.7933C8.89621 20.622 8.97068 20.6943 9.0761 20.7475C9.18163 20.8006 9.20183 20.8049 9.34612 20.8049C9.48964 20.8049 9.51084 20.8005 9.61205 20.7491C9.70735 20.7008 9.77861 20.6351 10.1466 20.2565L10.5711 19.8196L10.7316 19.9111C11.1277 20.1371 11.698 20.3748 12.1432 20.4995L12.2799 20.5378L12.2881 21.1597L12.2963 21.7816L12.3435 21.8777C12.4074 22.0075 12.5195 22.1203 12.6477 22.1837L12.7539 22.2362L14.0451 22.2409C15.1944 22.245 15.3453 22.2425 15.4181 22.2184C15.6021 22.1575 15.748 22.0161 15.821 21.8279C15.8573 21.7343 15.8588 21.7108 15.8642 21.1307L15.8697 20.5304L15.9276 20.5192C16.0278 20.4998 16.4385 20.3591 16.6766 20.2626C16.9499 20.1518 17.3256 19.9654 17.5825 19.813L17.7692 19.7023L18.1139 20.053C18.4094 20.3537 18.4742 20.4114 18.5689 20.4579C18.7688 20.5562 18.9887 20.5443 19.1691 20.4253C19.2095 20.3986 19.6373 19.9692 20.1196 19.471C20.795 18.7734 21.006 18.5457 21.0377 18.48C21.0962 18.3588 21.1197 18.2087 21.0986 18.0911C21.0622 17.8881 21.0272 17.839 20.6121 17.4089L20.2257 17.0086L20.3175 16.8103C20.4445 16.5357 20.5489 16.2679 20.641 15.9805L20.7193 15.7363L21.3294 15.7279L21.9395 15.7195L22.0494 15.6658C22.2366 15.5745 22.3667 15.4007 22.405 15.191C22.429 15.06 22.4274 12.7263 22.4032 12.6093C22.3624 12.4107 22.2237 12.2284 22.0496 12.1443L21.9558 12.0991L21.338 12.0941C20.8737 12.0904 20.7188 12.0841 20.7144 12.0688C20.6647 11.8948 20.5537 11.5655 20.4891 11.4002C20.4112 11.2008 20.2035 10.7564 20.1114 10.592L20.0689 10.5162L20.4762 10.0952C20.9641 9.59095 20.9751 9.57335 20.9751 9.30376C20.9751 9.01776 21.0203 9.07686 19.9883 8.01214C19.1522 7.1495 19.0884 7.08759 18.9836 7.03732C18.7843 6.94176 18.5638 6.95503 18.3846 7.07332C18.3441 7.10003 18.1316 7.307 17.9124 7.53327L17.5138 7.94465L17.2025 7.78641C16.8919 7.62856 16.526 7.47246 16.2564 7.38284L16.1141 7.33553L16.1093 6.68584L16.1045 6.03615L16.0515 5.92533C15.9877 5.79186 15.8708 5.67358 15.7403 5.61059L15.6469 5.56546L14.3557 5.56278C13.6455 5.5613 13.0415 5.56581 13.0135 5.57282ZM15.4426 7.06083V7.87421L15.6019 7.91335C16.0338 8.0194 16.4831 8.18927 16.8988 8.4037C17.1315 8.52372 17.4059 8.68396 17.5508 8.78445L17.6079 8.82401L18.1597 8.25565L18.7115 7.68731L19.5 8.4997L20.2886 9.31211L19.7468 9.87204L19.205 10.432L19.2946 10.5667C19.6683 11.128 19.9762 11.8557 20.1336 12.5495L20.1861 12.781H20.9606H21.7352V13.9093V15.0375H20.9604H20.1856L20.1413 15.2354C20.0093 15.8236 19.7621 16.4599 19.4668 16.9711L19.3761 17.1281L19.8946 17.6625L20.4131 18.1969L19.6236 19.0079L18.834 19.8188L18.3437 19.3143L17.8534 18.8098L17.6899 18.9283C17.0073 19.4232 16.1463 19.7951 15.275 19.9716L15.1811 19.9906V20.7724V21.5543H14.0696H12.9582V20.7724C12.9582 20.0422 12.9563 19.9899 12.9296 19.982C12.9139 19.9774 12.8208 19.9572 12.7227 19.9372C12.4704 19.8857 12.0751 19.7661 11.7978 19.6572C11.4018 19.5017 10.8317 19.1997 10.5529 18.9977L10.4821 18.9464L9.91809 19.5262L9.35415 20.1061L8.57794 19.3062L7.80173 18.5064L8.36134 17.9296L8.92094 17.3529L8.85479 17.2518C8.47636 16.6738 8.15236 15.9057 8.01134 15.2522L7.96502 15.0376L7.18458 15.0375L6.40413 15.0375V13.9094V12.7814L7.1842 12.777L7.96425 12.7726L8.00203 12.5958C8.15892 11.8614 8.50788 11.059 8.94258 10.4332L9.07039 10.2491L8.55046 9.71327L8.03051 9.17738L8.81905 8.36499L9.60757 7.5526L10.1674 8.12719L10.7272 8.70177L10.8498 8.62559C11.4481 8.25377 12.2708 7.9429 12.9695 7.82465L13.1952 7.78645L13.1995 7.01695L13.2037 6.24745H14.3231H15.4426V7.06083ZM13.6692 9.46438C12.7547 9.56015 11.9408 9.89454 11.2497 10.4584C11.074 10.6018 10.7606 10.9185 10.601 11.114C10.1895 11.6179 9.85262 12.3227 9.71549 12.9663C9.59264 13.5428 9.58676 14.1923 9.69913 14.7681C9.95425 16.0751 10.8178 17.2261 12.0103 17.8485C12.4836 18.0956 12.9348 18.2407 13.4894 18.3242C13.7141 18.3581 14.4697 18.3537 14.703 18.3172C15.7284 18.1568 16.6134 17.6967 17.3068 16.9633C17.9606 16.272 18.3466 15.4704 18.4937 14.4986C18.5351 14.2256 18.5344 13.5788 18.4925 13.2946C18.3519 12.3408 17.9304 11.4839 17.2663 10.8017C16.9117 10.4374 16.5278 10.156 16.0718 9.9262C15.6344 9.70576 15.2151 9.5716 14.7316 9.49742C14.4687 9.45709 13.906 9.4396 13.6692 9.46438ZM14.5927 10.1812C15.6023 10.3177 16.5252 10.8659 17.1233 11.6846C17.5024 12.2034 17.7227 12.74 17.8224 13.3873C17.8609 13.637 17.8614 14.1587 17.8235 14.4109C17.6613 15.4886 17.0936 16.402 16.2121 17.0038C15.2071 17.6899 13.9431 17.8492 12.7772 17.4366C12.5474 17.3553 12.1545 17.1541 11.9449 17.0103C11.1623 16.4736 10.6217 15.698 10.3997 14.7933C10.3151 14.4484 10.2881 14.1794 10.2994 13.7914C10.3094 13.4444 10.3377 13.2382 10.4158 12.9428C10.6221 12.1624 11.1053 11.4391 11.7532 10.9404C12.5742 10.3086 13.5686 10.0427 14.5927 10.1812Z" fill="white"/>
<path fill-rule="evenodd" clip-rule="evenodd" d="M13.0135 5.57282C12.8544 5.61258 12.6846 5.75212 12.6102 5.90425C12.5421 6.04362 12.5333 6.13272 12.5333 6.68358V7.20224L12.3249 7.25727C11.9027 7.36877 11.4636 7.53281 11.0804 7.72217C10.9601 7.78166 10.8537 7.83033 10.8441 7.83033C10.8345 7.83033 10.6314 7.63082 10.3928 7.38695C9.93107 6.91502 9.90163 6.89203 9.70902 6.85298C9.58676 6.82821 9.4496 6.85047 9.32214 6.91578C9.20046 6.97813 7.48782 8.7406 7.41958 8.87368C7.31877 9.07033 7.31584 9.2671 7.41085 9.46167C7.45657 9.5553 7.52403 9.63358 7.83162 9.94982L8.19795 10.3265L8.10191 10.4931C7.83982 10.9478 7.6017 11.5158 7.4413 12.0688C7.43687 12.0841 7.28019 12.0904 6.80946 12.0941L6.18349 12.0991L6.08542 12.1524C5.95918 12.221 5.8457 12.342 5.78795 12.4695L5.74219 12.5706V13.9093V15.248L5.77927 15.3308C5.85843 15.5077 6.00353 15.6404 6.17924 15.6968C6.26588 15.7246 6.33794 15.7279 6.85109 15.7279H7.42589L7.4971 15.951C7.61143 16.3093 7.7242 16.5894 7.8952 16.9398L8.05516 17.2676L7.63096 17.706C7.12731 18.2264 7.11556 18.2446 7.11528 18.5067C7.11513 18.6548 7.11932 18.6758 7.16995 18.7818C7.21983 18.8862 7.30309 18.9774 8.09341 19.7933C8.89621 20.622 8.97068 20.6943 9.0761 20.7475C9.18163 20.8006 9.20183 20.8049 9.34612 20.8049C9.48964 20.8049 9.51084 20.8005 9.61205 20.7491C9.70735 20.7008 9.77861 20.6351 10.1466 20.2565L10.5711 19.8196L10.7316 19.9111C11.1277 20.1371 11.698 20.3748 12.1432 20.4995L12.2799 20.5378L12.2881 21.1597L12.2963 21.7816L12.3435 21.8777C12.4074 22.0075 12.5195 22.1203 12.6477 22.1837L12.7539 22.2362L14.0451 22.2409C15.1944 22.245 15.3453 22.2425 15.4181 22.2184C15.6021 22.1575 15.748 22.0161 15.821 21.8279C15.8573 21.7343 15.8588 21.7108 15.8642 21.1307L15.8697 20.5304L15.9276 20.5192C16.0278 20.4998 16.4385 20.3591 16.6766 20.2626C16.9499 20.1518 17.3256 19.9654 17.5825 19.813L17.7692 19.7023L18.1139 20.053C18.4094 20.3537 18.4742 20.4114 18.5689 20.4579C18.7688 20.5562 18.9887 20.5443 19.1691 20.4253C19.2095 20.3986 19.6373 19.9692 20.1196 19.471C20.795 18.7734 21.006 18.5457 21.0377 18.48C21.0962 18.3588 21.1197 18.2087 21.0986 18.0911C21.0622 17.8881 21.0272 17.839 20.6121 17.4089L20.2257 17.0086L20.3175 16.8103C20.4445 16.5357 20.5489 16.2679 20.641 15.9805L20.7193 15.7363L21.3294 15.7279L21.9395 15.7195L22.0494 15.6658C22.2366 15.5745 22.3667 15.4007 22.405 15.191C22.429 15.06 22.4274 12.7263 22.4032 12.6093C22.3624 12.4107 22.2237 12.2284 22.0496 12.1443L21.9558 12.0991L21.338 12.0941C20.8737 12.0904 20.7188 12.0841 20.7144 12.0688C20.6647 11.8948 20.5537 11.5655 20.4891 11.4002C20.4112 11.2008 20.2035 10.7564 20.1114 10.592L20.0689 10.5162L20.4762 10.0952C20.9641 9.59095 20.9751 9.57335 20.9751 9.30376C20.9751 9.01776 21.0203 9.07686 19.9883 8.01214C19.1522 7.1495 19.0884 7.08759 18.9836 7.03732C18.7843 6.94176 18.5638 6.95503 18.3846 7.07332C18.3441 7.10003 18.1316 7.307 17.9124 7.53327L17.5138 7.94465L17.2025 7.78641C16.8919 7.62856 16.526 7.47246 16.2564 7.38284L16.1141 7.33553L16.1093 6.68584L16.1045 6.03615L16.0515 5.92533C15.9877 5.79186 15.8708 5.67358 15.7403 5.61059L15.6469 5.56546L14.3557 5.56278C13.6455 5.5613 13.0415 5.56581 13.0135 5.57282ZM15.4426 7.06083V7.87421L15.6019 7.91335C16.0338 8.0194 16.4831 8.18927 16.8988 8.4037C17.1315 8.52372 17.4059 8.68396 17.5508 8.78445L17.6079 8.82401L18.1597 8.25565L18.7115 7.68731L19.5 8.4997L20.2886 9.31211L19.7468 9.87204L19.205 10.432L19.2946 10.5667C19.6683 11.128 19.9762 11.8557 20.1336 12.5495L20.1861 12.781H20.9606H21.7352V13.9093V15.0375H20.9604H20.1856L20.1413 15.2354C20.0093 15.8236 19.7621 16.4599 19.4668 16.9711L19.3761 17.1281L19.8946 17.6625L20.4131 18.1969L19.6236 19.0079L18.834 19.8188L18.3437 19.3143L17.8534 18.8098L17.6899 18.9283C17.0073 19.4232 16.1463 19.7951 15.275 19.9716L15.1811 19.9906V20.7724V21.5543H14.0696H12.9582V20.7724C12.9582 20.0422 12.9563 19.9899 12.9296 19.982C12.9139 19.9774 12.8208 19.9572 12.7227 19.9372C12.4704 19.8857 12.0751 19.7661 11.7978 19.6572C11.4018 19.5017 10.8317 19.1997 10.5529 18.9977L10.4821 18.9464L9.91809 19.5262L9.35415 20.1061L8.57794 19.3062L7.80173 18.5064L8.36134 17.9296L8.92094 17.3529L8.85479 17.2518C8.47636 16.6738 8.15236 15.9057 8.01134 15.2522L7.96502 15.0376L7.18458 15.0375L6.40413 15.0375V13.9094V12.7814L7.1842 12.777L7.96425 12.7726L8.00203 12.5958C8.15892 11.8614 8.50788 11.059 8.94258 10.4332L9.07039 10.2491L8.55046 9.71327L8.03051 9.17738L8.81905 8.36499L9.60757 7.5526L10.1674 8.12719L10.7272 8.70177L10.8498 8.62559C11.4481 8.25377 12.2708 7.9429 12.9695 7.82465L13.1952 7.78645L13.1995 7.01695L13.2037 6.24745H14.3231H15.4426V7.06083ZM13.6692 9.46438C12.7547 9.56015 11.9408 9.89454 11.2497 10.4584C11.074 10.6018 10.7606 10.9185 10.601 11.114C10.1895 11.6179 9.85262 12.3227 9.71549 12.9663C9.59264 13.5428 9.58676 14.1923 9.69913 14.7681C9.95425 16.0751 10.8178 17.2261 12.0103 17.8485C12.4836 18.0956 12.9348 18.2407 13.4894 18.3242C13.7141 18.3581 14.4697 18.3537 14.703 18.3172C15.7284 18.1568 16.6134 17.6967 17.3068 16.9633C17.9606 16.272 18.3466 15.4704 18.4937 14.4986C18.5351 14.2256 18.5344 13.5788 18.4925 13.2946C18.3519 12.3408 17.9304 11.4839 17.2663 10.8017C16.9117 10.4374 16.5278 10.156 16.0718 9.9262C15.6344 9.70576 15.2151 9.5716 14.7316 9.49742C14.4687 9.45709 13.906 9.4396 13.6692 9.46438ZM14.5927 10.1812C15.6023 10.3177 16.5252 10.8659 17.1233 11.6846C17.5024 12.2034 17.7227 12.74 17.8224 13.3873C17.8609 13.637 17.8614 14.1587 17.8235 14.4109C17.6613 15.4886 17.0936 16.402 16.2121 17.0038C15.2071 17.6899 13.9431 17.8492 12.7772 17.4366C12.5474 17.3553 12.1545 17.1541 11.9449 17.0103C11.1623 16.4736 10.6217 15.698 10.3997 14.7933C10.3151 14.4484 10.2881 14.1794 10.2994 13.7914C10.3094 13.4444 10.3377 13.2382 10.4158 12.9428C10.6221 12.1624 11.1053 11.4391 11.7532 10.9404C12.5742 10.3086 13.5686 10.0427 14.5927 10.1812Z" stroke="white" stroke-width="0.278" mask="url(#path-2-outside-1_387_2507)"/>
</svg>
