<svg width="29" height="28" viewBox="0 0 29 28" fill="none" xmlns="http://www.w3.org/2000/svg">
<rect x="0.898438" width="27.8" height="27.8" rx="4.63333" fill="#E41F26"/>
<path d="M8.37992 9.99272L8.37992 9.99268C8.423 9.56762 8.76319 9.16878 9.24202 9.16878H10.83C10.9357 9.16878 11.0202 9.20952 11.0778 9.27405C11.1343 9.33732 11.1617 9.41982 11.1623 9.50027C11.163 9.58074 11.1369 9.66371 11.0803 9.72746C11.0226 9.7925 10.9373 9.83289 10.83 9.83289H9.24202C9.18478 9.83289 9.14212 9.8526 9.11098 9.8866C9.07857 9.92199 9.05367 9.9785 9.04543 10.0592C9.04543 10.0592 9.04543 10.0592 9.04543 10.0593L7.98676 20.5614L7.98675 20.5615C7.98353 20.5928 7.99852 20.6314 8.03607 20.6652C8.07302 20.6985 8.12609 20.7212 8.18334 20.7212H21.4168C21.474 20.7212 21.5271 20.6985 21.564 20.6652C21.6016 20.6314 21.6166 20.5928 21.6134 20.5615L21.6133 20.5614L20.5547 10.0593L8.37992 9.99272ZM8.37992 9.99272L7.32125 20.4949C7.26969 21.0064 7.715 21.3853 8.18334 21.3853H21.4168C21.8852 21.3853 22.3304 21.0053 22.2789 20.4949C22.2789 20.4949 22.2789 20.4949 22.2789 20.4949L21.2202 9.99272L21.2202 9.99267M8.37992 9.99272L21.2202 9.99267M21.2202 9.99267C21.1771 9.56818 20.8369 9.16878 20.3581 9.16878M21.2202 9.99267L20.3581 9.16878M20.3581 9.16878H18.7701M20.3581 9.16878H18.7701M18.7701 9.16878C18.6628 9.16878 18.5775 9.20918 18.52 9.2743M18.7701 9.16878L18.52 9.2743M18.52 9.2743C18.4636 9.33812 18.4377 9.42112 18.4386 9.50153M18.52 9.2743L18.4386 9.50153M18.4386 9.50153C18.4394 9.58193 18.4669 9.66434 18.5231 9.72756M18.4386 9.50153L18.5231 9.72756M18.5231 9.72756C18.5806 9.79204 18.6648 9.83289 18.7701 9.83289M18.5231 9.72756L18.7701 9.83289M18.7701 9.83289H20.3581M18.7701 9.83289H20.3581M20.3581 9.83289C20.4153 9.83289 20.458 9.8526 20.4891 9.8866M20.3581 9.83289L20.4891 9.8866M20.4891 9.8866C20.5215 9.92198 20.5464 9.97848 20.5547 10.0592L20.4891 9.8866ZM16.6527 9.16878H12.9474C12.7629 9.16878 12.6132 9.31647 12.6132 9.50083C12.6132 9.6852 12.7629 9.83289 12.9474 9.83289H16.6527C16.8372 9.83289 16.9869 9.6852 16.9869 9.50083C16.9869 9.31647 16.8372 9.16878 16.6527 9.16878ZM14.8001 5.493C13.0111 5.493 11.5545 6.93719 11.5545 8.71317V11.0762C11.5545 11.1826 11.5956 11.2674 11.6608 11.3248C11.7248 11.381 11.8079 11.4076 11.8887 11.4076C11.9695 11.4076 12.0526 11.381 12.1166 11.3248C12.1818 11.2674 12.2229 11.1826 12.2229 11.0762V8.71317C12.2229 7.29909 13.3732 6.15711 14.8001 6.15711C16.2269 6.15711 17.3772 7.29909 17.3772 8.71317V11.0762C17.3772 11.1826 17.4183 11.2672 17.4837 11.3244C17.5478 11.3803 17.631 11.4063 17.7117 11.406C17.7923 11.4057 17.8753 11.379 17.9391 11.3231C18.0043 11.266 18.0456 11.1818 18.0456 11.0762V8.71317C18.0456 6.93719 16.589 5.493 14.8001 5.493Z" fill="white" stroke="white" stroke-width="0.139"/>
</svg>
